# xmcd CD database file
#
# Track frame offsets:
#	150
#	19424
#	38273
#	55768
#	77348
#	98297
#	119477
#	135671
#	153303
#	168026
#	183576
#	202964
#	226966
#	240110
#	259633
#	272741
#
# Disc length: 4088 seconds
#
# Revision: 0
# Processed by: cddbd v1.5.2PL0 Copyright (c) Steve Scherf et al.
# Submitted via: Feurio! 1.68 - http://www.feurio.com
#
DISCID=b50ff610
DTITLE=Robin Thicke - Something Else (Deluxe Edition)
DYEAR=1900
DGENRE=R&B
TTITLE0=You're My Baby
TTITLE1=Sidestep
TTITLE2=Magic
TTITLE3=Ms. Harmony
TTITLE4=Dreamworld
TTITLE5=Loverman
TTITLE6=Hard On My Love
TTITLE7=The Sweetest Love
TTITLE8=Something Else
TTITLE9=Shadow Of Doubt
TTITLE10=Cry No More
TTITLE11=Tie My Hands
TTITLE12=Everybody's A Star
TTITLE13=Ebb And Flow
TTITLE14=I'm Coming Home
TTITLE15=Magic Touch (Moto Blanco Remix) [Club Mix]
EXTD=
EXTT0=
EXTT1=
EXTT2=
EXTT3=
EXTT4=
EXTT5=
EXTT6=
EXTT7=
EXTT8=
EXTT9=
EXTT10=
EXTT11=
EXTT12=
EXTT13=
EXTT14=
EXTT15=
PLAYORDER=
